<?xml version="1.0" encoding="UTF-8"?>
<svg version="1.1" xmlns="http://www.w3.org/2000/svg" width="432" height="153">
<path d="M0 0 C5.08666171 4.15410707 7.9501587 9.61566558 11.1875 15.25 C12.23881549 17.0704157 13.29458016 18.88827157 14.35546875 20.703125 C14.81590576 21.50395508 15.27634277 22.30478516 15.75073242 23.12988281 C16.87175253 25.14226308 16.87175253 25.14226308 19 26 C19.35715088 25.39526855 19.71430176 24.79053711 20.08227539 24.16748047 C21.72943547 21.39541116 23.39572267 18.63531471 25.0625 15.875 C25.90458008 14.44800781 25.90458008 14.44800781 26.76367188 12.9921875 C30.04317185 7.59506754 33.36190066 2.1923979 39 -1 C42.58948856 -1.05982481 44.78501379 -0.98952532 47.61199951 1.31286621 C49.17663438 3.21470153 49.76517489 4.70022283 50.45800781 7.05664062 C50.70125793 7.86758179 50.94450806 8.67852295 51.19512939 9.51403809 C51.57033722 10.82193298 51.57033722 10.82193298 51.953125 12.15625 C52.34984406 13.50426697 52.34984406 13.50426697 52.75457764 14.8795166 C53.31055504 16.77782527 53.86164917 18.67757002 54.40820312 20.57861328 C55.24793325 23.4928275 56.10717355 26.40077325 56.96875 29.30859375 C57.50638642 31.15330289 58.04288378 32.99834447 58.578125 34.84375 C58.83636047 35.71567993 59.09459595 36.58760986 59.36065674 37.48596191 C59.59129822 38.29690308 59.8219397 39.10784424 60.05957031 39.94335938 C60.26592102 40.65600952 60.47227173 41.36865967 60.68487549 42.10290527 C61 44 61 44 60 47 C55.38 47 50.76 47 46 47 C42.57410605 39.82193648 40 31.99655193 40 24 C35.24260835 28.206299 32.29234106 33.63540344 28.97851562 38.9765625 C28.50994141 39.7190625 28.04136719 40.4615625 27.55859375 41.2265625 C27.13892334 41.90283691 26.71925293 42.57911133 26.28686523 43.27587891 C23.93740969 46.4236412 22.02367304 46.99650726 18.1875 47.5625 C14.53034253 47.4162137 14.0229837 47.02004961 11.0625 44.4375 C7.67480878 39.92991086 4.87298347 34.95539447 2.07055664 30.06811523 C0.15867439 26.42856146 0.15867439 26.42856146 -3 24 C-3.18175781 24.99 -3.36351562 25.98 -3.55078125 27 C-4.8530661 33.90272112 -6.2196632 40.51254747 -9 47 C-13.95 47 -18.9 47 -24 47 C-23.25846858 41.80928003 -22.31144634 37.07827103 -20.85546875 32.08984375 C-20.64440994 31.3593129 -20.43335114 30.62878204 -20.21589661 29.87611389 C-19.77044233 28.34170989 -19.32237931 26.80806104 -18.87182617 25.27514648 C-18.18929693 22.94363827 -17.52309645 20.60785234 -16.85742188 18.27148438 C-16.42026383 16.77314742 -15.98214473 15.27509047 -15.54296875 13.77734375 C-15.34801315 13.08656235 -15.15305756 12.39578094 -14.95219421 11.68406677 C-13.61705651 7.2195815 -11.82609637 3.70343909 -9 0 C-5.77509551 -1.61245225 -3.43772273 -0.81573082 0 0 Z " fill="#315D8A" transform="translate(302,56)"/>
<path d="M0 0 C1.36293434 -0.01925285 1.36293434 -0.01925285 2.75340271 -0.03889465 C3.74493851 -0.04628159 4.7364743 -0.05366852 5.75805664 -0.0612793 C6.77613907 -0.06935104 7.7942215 -0.07742279 8.84315491 -0.08573914 C11.00788662 -0.09960641 13.17264044 -0.11031666 15.33740234 -0.11816406 C18.62323812 -0.13526399 21.9080381 -0.17911281 25.19360352 -0.22338867 C27.29841383 -0.23352526 29.40323271 -0.24203833 31.50805664 -0.2487793 C32.48137436 -0.26628738 33.45469208 -0.28379547 34.45750427 -0.30183411 C42.69698836 -0.276108 50.28560105 1.4029454 56.29321289 7.36450195 C59.28461961 11.35304425 60.24097503 15.22745919 59.73071289 20.17700195 C58.11490874 25.4941249 55.48074402 29.17698229 50.73071289 32.17700195 C50.07071289 32.17700195 49.41071289 32.17700195 48.73071289 32.17700195 C52.59935715 36.17044119 56.70783648 39.79859353 60.93774414 43.4074707 C61.52942383 43.99141602 62.12110352 44.57536133 62.73071289 45.17700195 C62.73071289 45.83700195 62.73071289 46.49700195 62.73071289 47.17700195 C43.91379568 48.38296918 43.91379568 48.38296918 38.35571289 43.92700195 C37.12375128 42.70028273 35.91530013 41.44952799 34.73071289 40.17700195 C31.61548972 36.90630553 29.50218424 35.92109653 25.08618164 35.78637695 C23.3630901 35.81278449 21.64021261 35.86022791 19.91821289 35.92700195 C18.59273437 35.95407227 18.59273437 35.95407227 17.24047852 35.98168945 C15.07008746 36.02861683 12.9002577 36.10035464 10.73071289 36.17700195 C10.65723633 37.11672852 10.65723633 37.11672852 10.58227539 38.07543945 C10.50750977 38.89270508 10.43274414 39.7099707 10.35571289 40.55200195 C10.28610352 41.36411133 10.21649414 42.1762207 10.14477539 43.01293945 C9.73071289 45.17700195 9.73071289 45.17700195 7.73071289 47.17700195 C4.94555664 47.4074707 4.94555664 47.4074707 1.66821289 47.36450195 C0.04206055 47.35483398 0.04206055 47.35483398 -1.61694336 47.3449707 C-4.26928711 47.17700195 -4.26928711 47.17700195 -5.26928711 46.17700195 C-5.36733562 44.77024975 -5.39726897 43.3586506 -5.39868164 41.94848633 C-5.4018338 41.05085571 -5.40498596 40.1532251 -5.40823364 39.22839355 C-5.40620941 38.25237183 -5.40418518 37.2763501 -5.40209961 36.27075195 C-5.40305634 35.27571655 -5.40401306 34.28068115 -5.40499878 33.25549316 C-5.40568071 31.14713478 -5.40382554 29.0387743 -5.3996582 26.93041992 C-5.39431014 23.69095168 -5.39960278 20.4516221 -5.40600586 17.2121582 C-5.40534508 15.16918915 -5.40406392 13.12622017 -5.40209961 11.08325195 C-5.40412384 10.10723022 -5.40614807 9.1312085 -5.40823364 8.12561035 C-5.40508148 7.22797974 -5.40192932 6.33034912 -5.39868164 5.40551758 C-5.39788605 4.61133423 -5.39709045 3.81715088 -5.39627075 2.99890137 C-5.14788777 -0.56477659 -3.07983187 0.0377769 0 0 Z M9.73071289 12.17700195 C9.73071289 15.80700195 9.73071289 19.43700195 9.73071289 23.17700195 C14.29315926 23.23513368 18.85551013 23.27064317 23.41821289 23.30200195 C24.71178711 23.31875977 26.00536133 23.33551758 27.33813477 23.3527832 C28.58530273 23.35922852 29.8324707 23.36567383 31.11743164 23.37231445 C32.26429443 23.38278809 33.41115723 23.39326172 34.59277344 23.40405273 C38.88340779 23.09359681 41.6757076 22.23200724 44.73071289 19.17700195 C44.72148587 16.62986792 44.72148587 16.62986792 43.73071289 14.17700195 C40.2546701 11.72240031 36.92551949 11.94653749 32.77758789 11.98168945 C31.78725555 11.9859343 31.78725555 11.9859343 30.7769165 11.99026489 C28.67799392 12.00141781 26.57950547 12.02651249 24.48071289 12.05200195 C23.05363574 12.06203811 21.62655187 12.07116285 20.19946289 12.0793457 C16.70973961 12.10134084 13.22026866 12.13583659 9.73071289 12.17700195 Z " fill="#35608C" transform="translate(155.269287109375,55.822998046875)"/>
<path d="M0 0 C1.35094757 0.0001133 1.35094757 0.0001133 2.72918701 0.00022888 C4.1746994 0.00797081 4.1746994 0.00797081 5.64941406 0.01586914 C6.64257629 0.01728409 7.63573853 0.01869904 8.65899658 0.02015686 C11.82770818 0.02574951 14.99634885 0.03830069 18.16503906 0.05102539 C20.31477762 0.05604134 22.4645173 0.06060408 24.61425781 0.06469727 C29.88120905 0.07571653 35.14811899 0.09244739 40.41503906 0.11352539 C40.1329203 1.74021019 39.83901532 3.36485435 39.54003906 4.98852539 C39.37761719 5.89344727 39.21519531 6.79836914 39.04785156 7.73071289 C38.41503906 10.11352539 38.41503906 10.11352539 36.41503906 12.11352539 C33.69182707 12.32287278 31.06212905 12.41464388 28.33691406 12.42211914 C26.68456697 12.44729108 25.0322233 12.47268892 23.37988281 12.49829102 C20.77523785 12.52697005 18.17065283 12.55098479 15.56591797 12.56982422 C13.05175819 12.59156805 10.53832141 12.63102697 8.02441406 12.67211914 C6.86628204 12.67229286 6.86628204 12.67229286 5.68475342 12.67247009 C0.89299503 12.75956607 -2.4421632 13.45526927 -6.58496094 16.11352539 C-9.05168202 19.81360702 -9.25573894 22.82054617 -8.58496094 27.11352539 C-6.70002177 30.44841777 -5.41662879 31.77448726 -1.86962891 33.22045898 C1.64095211 34.17494875 4.71111506 34.43112033 8.34472656 34.52758789 C9.63378906 34.56625977 10.92285156 34.60493164 12.25097656 34.64477539 C13.59732613 34.67622297 14.94368038 34.70747051 16.29003906 34.73852539 C17.6598542 34.7767558 19.02964661 34.8158104 20.39941406 34.85571289 C23.73782169 34.94975254 27.0762272 35.03540596 30.41503906 35.11352539 C29.94992104 39.85772927 29.42509936 43.34504676 26.41503906 47.11352539 C23.6628418 47.72875977 23.6628418 47.72875977 20.34863281 47.70727539 C19.14013672 47.70469727 17.93164062 47.70211914 16.68652344 47.69946289 C15.42130859 47.67110352 14.15609375 47.64274414 12.85253906 47.61352539 C10.99532227 47.61739258 10.99532227 47.61739258 9.10058594 47.62133789 C-0.49983881 47.51969231 -10.05370211 46.61779438 -17.58496094 40.11352539 C-22.88572833 33.35348792 -25.47360589 27.85715696 -24.58496094 19.11352539 C-23.10461605 13.20303072 -20.7074146 8.14715296 -15.46777344 4.73461914 C-10.23509741 1.72368588 -6.08486791 -0.01709233 0 0 Z " fill="#35618C" transform="translate(243.5849609375,55.886474609375)"/>
<path d="M0 0 C1.31902817 0.00424484 1.31902817 0.00424484 2.66470337 0.00857544 C5.45629844 0.01971538 8.2475654 0.04480839 11.0390625 0.0703125 C12.93879743 0.0803503 14.83853742 0.08947475 16.73828125 0.09765625 C21.38033357 0.11963444 26.02214252 0.1541214 30.6640625 0.1953125 C30.54996657 1.65453943 30.42240706 3.11271848 30.2890625 4.5703125 C30.21945312 5.38242187 30.14984375 6.19453125 30.078125 7.03125 C29.6640625 9.1953125 29.6640625 9.1953125 27.6640625 11.1953125 C24.63667606 11.35876605 21.70155901 11.40223613 18.67578125 11.35546875 C17.78043167 11.35026718 16.88508209 11.34506561 15.96260071 11.33970642 C13.09209181 11.32185447 10.22193552 11.29070044 7.3515625 11.2578125 C4.49193449 11.23015652 1.63235968 11.20542167 -1.2273407 11.18663025 C-3.00815941 11.17442076 -4.7889515 11.15686411 -6.56965637 11.13331604 C-10.63449302 11.10070361 -14.36972735 11.16238728 -18.3359375 12.1953125 C-18.3359375 10.8753125 -18.3359375 9.5553125 -18.3359375 8.1953125 C-19.3259375 7.5353125 -20.3159375 6.8753125 -21.3359375 6.1953125 C-14.16655163 1.07432259 -8.58680383 -0.10502326 0 0 Z " fill="#285785" transform="translate(252.3359375,56.8046875)"/>
<path d="M0 0 C0.89203125 0.01804688 1.7840625 0.03609375 2.703125 0.0546875 C3.71632813 0.08949219 3.71632813 0.08949219 4.75 0.125 C4.42 0.785 4.09 1.445 3.75 2.125 C3.09 2.125 2.43 2.125 1.75 2.125 C0.78334286 5.02497141 0.48065936 7.64467566 0.20581055 10.6730957 C-0.4711261 17.70986421 -1.1526896 23.79265512 -6.25 29.125 C-8.93025665 31.26920532 -10.50157913 32.01808273 -13.875 32.5 C-16.717787 32.0511389 -17.55470783 31.41364443 -19.25 29.125 C-21.14340495 23.44478516 -21.17131907 17.38398331 -18.6875 11.875 C-14.69025347 4.84781215 -8.19637729 -0.21569414 0 0 Z M-16.25 15.125 C-16.44491452 16.58236087 -16.63069358 18.04094593 -16.8125 19.5 C-16.91691406 20.31210938 -17.02132812 21.12421875 -17.12890625 21.9609375 C-17.43237328 24.17399186 -17.43237328 24.17399186 -16.25 26.125 C-15.59 26.125 -14.93 26.125 -14.25 26.125 C-14.58 22.495 -14.91 18.865 -15.25 15.125 C-15.58 15.125 -15.91 15.125 -16.25 15.125 Z " fill="#275685" transform="translate(111.25,55.875)"/>
<path d="M0 0 C5.60995045 3.02937324 9.60271161 7.0058106 12.3125 12.8125 C14.00892632 20.67774931 13.25585387 27.04152359 9 34 C8.01 34.495 8.01 34.495 7 35 C6.896875 34.030625 6.79375 33.06125 6.6875 32.0625 C5.25108957 26.80630185 0.76140756 24.31806712 -3.359375 21.125 C-7.85550655 17.5068113 -9.95803313 14.42260363 -10.75 8.625 C-10.8325 7.42875 -10.915 6.2325 -11 5 C-6.563762 3.521254 -4.26594174 5.25166322 0 7 C-2.97 5.35 -5.94 3.7 -9 2 C-9 1.34 -9 0.68 -9 0 C-5.81011624 -1.59494188 -3.42171253 -0.74137105 0 0 Z " fill="#15A863" transform="translate(125,57)"/>
<path d="M0 0 C2.4375 2.3125 2.4375 2.3125 3.125 5.25 C2.00218519 10.25162961 -1.08079674 12.26446599 -5.125 15.125 C-11.52113772 17.33457485 -18.67118557 17.54574028 -24.9375 14.75 C-28.89882999 12.42955565 -32.16104766 9.23305288 -34.5625 5.3125 C-34.5625 4.3225 -34.5625 3.3325 -34.5625 2.3125 C-31.51215414 2.74826369 -28.80255845 3.21533348 -25.9375 4.375 C-20.84818611 5.7886983 -15.81178096 5.46539168 -10.5625 5.3125 C-10.5625 4.6525 -10.5625 3.9925 -10.5625 3.3125 C-15.1825 3.6425 -19.8025 3.9725 -24.5625 4.3125 C-24.5625 3.3225 -24.5625 2.3325 -24.5625 1.3125 C-16.01547426 -2.54204102 -8.83570735 -4.18533506 0 0 Z " fill="#F47D36" transform="translate(128.5625,86.6875)"/>
<path d="M0 0 C3 1 3 1 4 3 C6.02463255 3.65213292 6.02463255 3.65213292 8 4 C8 3.34 8 2.68 8 2 C14.28571429 -0.42857143 14.28571429 -0.42857143 18 1 C18.25 7.625 18.25 7.625 16 11 C15.731875 12.11375 15.46375 13.2275 15.1875 14.375 C13.79975449 18.61127575 12.61967453 20.40327697 9 23 C6.11467443 23.83882661 3.8762786 23.89672215 1 23 C-1.50184667 20.98618172 -3.21909358 18.65476734 -5 16 C-5.639375 15.113125 -6.27875 14.22625 -6.9375 13.3125 C-8 11 -8 11 -7.75 8.8125 C-7.21535034 7.52043 -6.62534713 6.25069425 -6 5 C-5.34 5 -4.68 5 -4 5 C-4 5.66 -4 6.32 -4 7 C-3.34 6.67 -2.68 6.34 -2 6 C-2 5.34 -2 4.68 -2 4 C-1.34 4 -0.68 4 0 4 C0 2.68 0 1.36 0 0 Z " fill="#2F5C89" transform="translate(315,80)"/>
<path d="M0 0 C2.4375 2.3125 2.4375 2.3125 3.125 5.25 C2.22613265 9.25404549 0.62175962 10.79471332 -2.5625 13.3125 C-3.5525 13.3125 -4.5425 13.3125 -5.5625 13.3125 C-5.5625 12.3225 -5.5625 11.3325 -5.5625 10.3125 C-4.2425 10.3125 -2.9225 10.3125 -1.5625 10.3125 C-1.5625 9.6525 -1.5625 8.9925 -1.5625 8.3125 C-0.9025 8.3125 -0.2425 8.3125 0.4375 8.3125 C0.7675 6.6625 1.0975 5.0125 1.4375 3.3125 C-0.2125 3.3125 -1.8625 3.3125 -3.5625 3.3125 C-3.8925 2.6525 -4.2225 1.9925 -4.5625 1.3125 C-6.5425 1.3125 -8.5225 1.3125 -10.5625 1.3125 C-10.2325 2.6325 -9.9025 3.9525 -9.5625 5.3125 C-9.8925 4.6525 -10.2225 3.9925 -10.5625 3.3125 C-15.1825 3.6425 -19.8025 3.9725 -24.5625 4.3125 C-24.5625 3.3225 -24.5625 2.3325 -24.5625 1.3125 C-16.01547426 -2.54204102 -8.83570735 -4.18533506 0 0 Z " fill="#E99C6E" transform="translate(128.5625,86.6875)"/>
<path d="M0 0 C3.05034586 0.43576369 5.75994155 0.90283348 8.625 2.0625 C13.71431389 3.4761983 18.75071904 3.15289168 24 3 C24 3.99 24 4.98 24 6 C19.38 6 14.76 6 10 6 C12.32251426 10.88495525 12.32251426 10.88495525 15 12 C16.87056791 12.2275015 18.74685958 12.40962811 20.625 12.5625 C21.62789062 12.64628906 22.63078125 12.73007813 23.6640625 12.81640625 C24.82035156 12.90728516 24.82035156 12.90728516 26 13 C26 13.33 26 13.66 26 14 C18.51559867 14.44906408 12.15856518 14.70788094 6 10 C3.72132901 7.84846516 1.64107661 5.67918188 0 3 C0 2.01 0 1.02 0 0 Z " fill="#F0A678" transform="translate(94,89)"/>
<path d="M0 0 C4.79628647 2.58999469 7.80676026 5.67973447 11 10 C11 10.66 11 11.32 11 12 C10.34 12 9.68 12 9 12 C8.34 11.34 7.68 10.68 7 10 C6.67 10.99 6.34 11.98 6 13 C6.66 13.33 7.32 13.66 8 14 C5.16032769 14 2.76264289 13.59732819 0 13 C-1 8.25 -1 8.25 -1 6 C-3.64 4.68 -6.28 3.36 -9 2 C-9 1.34 -9 0.68 -9 0 C-5.81011624 -1.59494188 -3.42171253 -0.74137105 0 0 Z " fill="#4DBC89" transform="translate(125,57)"/>
<path d="M0 0 C0.99033234 0.0028299 1.98066467 0.00565979 3.00100708 0.00857544 C6.14923426 0.0197278 9.29717199 0.04482343 12.4453125 0.0703125 C14.58593338 0.08034868 16.72655874 0.08947342 18.8671875 0.09765625 C24.10166047 0.11965092 29.3359658 0.15307917 34.5703125 0.1953125 C34.2403125 1.1853125 33.9103125 2.1753125 33.5703125 3.1953125 C33.5703125 2.5353125 33.5703125 1.8753125 33.5703125 1.1953125 C28.03791996 1.23970942 22.50664232 1.30979631 16.97485352 1.40283203 C15.09636346 1.43091014 13.21775816 1.4521896 11.33911133 1.46630859 C8.62521921 1.48792175 5.91269378 1.53466297 3.19921875 1.5859375 C1.95646935 1.58778046 1.95646935 1.58778046 0.68861389 1.58966064 C-5.4569763 1.74111045 -9.98883596 3.41751926 -15.4296875 6.1953125 C-18.50904851 7.53416511 -20.06722282 8.1953125 -23.4296875 8.1953125 C-23.0996875 9.1853125 -22.7696875 10.1753125 -22.4296875 11.1953125 C-24.0796875 11.8553125 -25.7296875 12.5153125 -27.4296875 13.1953125 C-26.12417449 9.10516801 -24.7970603 7.30250647 -21.1796875 5.0078125 C-20.43203125 4.51925781 -19.684375 4.03070313 -18.9140625 3.52734375 C-12.581602 0.13210942 -7.02453726 -0.07605927 0 0 Z " fill="#6584A3" transform="translate(249.4296875,55.8046875)"/>
<path d="M0 0 C0.99 0.33 1.98 0.66 3 1 C2.67 5.95 2.34 10.9 2 16 C1.67 16 1.34 16 1 16 C0.67 14.02 0.34 12.04 0 10 C0 12.64 0 15.28 0 18 C0.99 18 1.98 18 3 18 C3.66 19.98 4.32 21.96 5 24 C0.48780488 24.36585366 0.48780488 24.36585366 -1.75 22.6875 C-4.90573897 18.42725238 -4.5725161 13.0485511 -4 8 C-2.92385825 5.07233053 -1.60058567 2.70098832 0 0 Z " fill="#6685A3" transform="translate(95,64)"/>
<path d="M0 0 C2.9375 2.5625 2.9375 2.5625 5 5 C4.67 5.66 4.34 6.32 4 7 C3.38125 6.814375 2.7625 6.62875 2.125 6.4375 C-0.04160178 5.76313824 -0.04160178 5.76313824 -2 7 C-2.94875 6.938125 -3.8975 6.87625 -4.875 6.8125 C-8.11085667 6.68340483 -8.11085667 6.68340483 -10.25 9 C-10.8275 9.66 -11.405 10.32 -12 11 C-12.66 11 -13.32 11 -14 11 C-11.76725304 2.93166441 -11.76725304 2.93166441 -9.25 -0.125 C-5.77480907 -1.47646314 -3.55786697 -0.9986995 0 0 Z " fill="#3B658E" transform="translate(302,56)"/>
<path d="M0 0 C3.3 0 6.6 0 10 0 C9.67 0.66 9.34 1.32 9 2 C8.34 2 7.68 2 7 2 C5.56140239 6.31579283 5.29385181 10.77513476 4.83789062 15.28320312 C4.21666343 20.78333657 4.21666343 20.78333657 2 23 C0.93369199 17.56959697 1.20025586 13.4274012 2.4375 8.0625 C2.58509766 7.37865234 2.73269531 6.69480469 2.88476562 5.99023438 C3.24587294 4.32448128 3.62142712 2.66187077 4 1 C2.68 0.67 1.36 0.34 0 0 Z " fill="#577696" transform="translate(106,56)"/>
<path d="M0 0 C1.478746 4.436238 -0.25166322 6.73405826 -2 11 C-6.95 11 -11.9 11 -17 11 C-16.67 9.68 -16.34 8.36 -16 7 C-16 7.99 -16 8.98 -16 10 C-12.7 10 -9.4 10 -6 10 C-6 9.34 -6 8.68 -6 8 C-6.66 8 -7.32 8 -8 8 C-7 6 -7 6 -4 4 C-3.67 3.01 -3.34 2.02 -3 1 C-2.01 0.67 -1.02 0.34 0 0 Z " fill="#6685A3" transform="translate(295,92)"/>
<path d="M0 0 C0 2.31 0 4.62 0 7 C-0.99 7.495 -0.99 7.495 -2 8 C-4.625 7.0625 -4.625 7.0625 -7 6 C-7 5.34 -7 4.68 -7 4 C-8.32 4.33 -9.64 4.66 -11 5 C-11.33 4.34 -11.66 3.68 -12 3 C-11.34 3 -10.68 3 -10 3 C-10 2.34 -10 1.68 -10 1 C-6.42181037 -1.33958553 -4.07775191 -0.9267618 0 0 Z " fill="#275585" transform="translate(333,81)"/>
<path d="M0 0 C1.60379341 -0.05416188 3.20811406 -0.09286638 4.8125 -0.125 C5.70582031 -0.14820312 6.59914063 -0.17140625 7.51953125 -0.1953125 C10 0 10 0 13 2 C12.67 2.66 12.34 3.32 12 4 C9.70858714 4.05384521 7.41681812 4.09272087 5.125 4.125 C3.21074219 4.15980469 3.21074219 4.15980469 1.2578125 4.1953125 C-2 4 -2 4 -4 2 C-2.68 2 -1.36 2 0 2 C0 1.34 0 0.68 0 0 Z " fill="#EC8545" transform="translate(111,98)"/>
<path d="M0 0 C1.5159375 0.72123047 1.5159375 0.72123047 3.0625 1.45703125 C9.48014837 3.86364939 16.22884666 3.57144203 23 3.6875 C24.36070879 3.72073151 25.72138733 3.75522641 27.08203125 3.79101562 C30.38793761 3.87307713 33.6935926 3.94236713 37 4 C36.67 5.32 36.34 6.64 36 8 C36 7.01 36 6.02 36 5 C35.0212793 5.01047363 34.04255859 5.02094727 33.03417969 5.03173828 C29.39635895 5.06799093 25.75855413 5.09091958 22.12060547 5.10986328 C20.54733595 5.11990887 18.97408504 5.13354781 17.40087891 5.15087891 C15.13699748 5.17519096 12.87336334 5.18649747 10.609375 5.1953125 C9.90818542 5.20563507 9.20699585 5.21595764 8.48455811 5.22659302 C4.81436524 5.22743257 2.11910787 5.02112595 -1 3 C-0.67 2.01 -0.34 1.02 0 0 Z " fill="#5A7791" transform="translate(237,87)"/>
<path d="M0 0 C2.36355855 3.54533783 3.19497397 7.04740209 4.1875 11.125 C4.37763672 11.86621094 4.56777344 12.60742188 4.76367188 13.37109375 C5.22557774 15.23576171 5.61880157 17.11717462 6 19 C5 20 5 20 1.83984375 20.09765625 C0.55207031 20.08605469 -0.73570312 20.07445313 -2.0625 20.0625 C-3.35285156 20.05347656 -4.64320313 20.04445313 -5.97265625 20.03515625 C-6.97167969 20.02355469 -7.97070312 20.01195313 -9 20 C-9 19.67 -9 19.34 -9 19 C-5.04 19 -1.08 19 3 19 C2.87625 17.741875 2.7525 16.48375 2.625 15.1875 C2.55539062 14.47980469 2.48578125 13.77210937 2.4140625 13.04296875 C2.07334609 10.70011858 2.07334609 10.70011858 0 8 C-0.25760279 5.30547479 -0.08900053 2.71451625 0 0 Z " fill="#7F98B0" transform="translate(357,83)"/>
<path d="M0 0 C4.69852941 1.39215686 4.69852941 1.39215686 6.375 4 C7.0625 6.6875 7.0625 6.6875 7.375 9 C6.385 8.67 5.395 8.34 4.375 8 C3.6875 5.9375 3.6875 5.9375 3.375 4 C2.715 4 2.055 4 1.375 4 C1.375 3.34 1.375 2.68 1.375 2 C0.055 2 -1.265 2 -2.625 2 C-2.625 2.66 -2.625 3.32 -2.625 4 C-4.605 4.33 -6.585 4.66 -8.625 5 C-4.60060976 0 -4.60060976 0 0 0 Z " fill="#64829E" transform="translate(344.625,55)"/>
<path d="M0 0 C0.33 0 0.66 0 1 0 C1.02687279 1.81242052 1.04633715 3.62495233 1.0625 5.4375 C1.07410156 6.44683594 1.08570313 7.45617187 1.09765625 8.49609375 C1 11 1 11 0 12 C-2.01964199 12.07244053 -4.04167124 12.08377188 -6.0625 12.0625 C-7.16722656 12.05347656 -8.27195313 12.04445313 -9.41015625 12.03515625 C-10.69212891 12.01775391 -10.69212891 12.01775391 -12 12 C-12 9.69 -12 7.38 -12 5 C-11.34 6.32 -10.68 7.64 -10 9 C-7.03 9 -4.06 9 -1 9 C-1.020625 7.700625 -1.04125 6.40125 -1.0625 5.0625 C-1.08399454 3.70834367 -1.07148199 2.35243917 -1 1 C-0.67 0.67 -0.34 0.34 0 0 Z " fill="#587491" transform="translate(163,91)"/>
<path d="M0 0 C0.66 0 1.32 0 2 0 C1.34 1.32 0.68 2.64 0 4 C-11.88 4 -23.76 4 -36 4 C-36 3.67 -36 3.34 -36 3 C-24.45 3 -12.9 3 -1 3 C-0.67 2.01 -0.34 1.02 0 0 Z " fill="#8AA5C2" transform="translate(280,64)"/>
<path d="M0 0 C0.66 0.66 1.32 1.32 2 2 C1.67 3.65 1.34 5.3 1 7 C-2.3 5.35 -5.6 3.7 -9 2 C-9 1.34 -9 0.68 -9 0 C-5.88135455 -1.55932272 -3.33704665 -0.65549131 0 0 Z " fill="#38B17B" transform="translate(125,57)"/>
<path d="M0 0 C2.97 0.99 5.94 1.98 9 3 C8.01 3.66 7.02 4.32 6 5 C4.68 4.34 3.36 3.68 2 3 C2 5.31 2 7.62 2 10 C2.66 10.33 3.32 10.66 4 11 C3.34 11.66 2.68 12.32 2 13 C-1.52941176 5.5 -1.52941176 5.5 -1 1 C-0.67 0.67 -0.34 0.34 0 0 Z " fill="#4FB787" transform="translate(115,61)"/>
<path d="M0 0 C0.99 0.33 1.98 0.66 3 1 C2.67 5.95 2.34 10.9 2 16 C1.67 16 1.34 16 1 16 C0.855625 15.05125 0.71125 14.1025 0.5625 13.125 C0.17064601 10.1065506 0.17064601 10.1065506 -1 8 C-1.66 8 -2.32 8 -3 8 C-2.45276317 4.62537285 -1.9451 2.91765 0 0 Z " fill="#738EAC" transform="translate(95,64)"/>
<path d="M0 0 C1.32 0 2.64 0 4 0 C4 0.66 4 1.32 4 2 C4.66 2 5.32 2 6 2 C6 2.66 6 3.32 6 4 C-0.14847162 6.37554585 -0.14847162 6.37554585 -4 5 C-4.66 5 -5.32 5 -6 5 C-6 4.34 -6 3.68 -6 3 C-4.02 2.67 -2.04 2.34 0 2 C0 1.34 0 0.68 0 0 Z " fill="#255685" transform="translate(342,57)"/>
<path d="M0 0 C0.66 0.33 1.32 0.66 2 1 C2.3125 3.6875 2.3125 3.6875 2 7 C-0.3125 9.875 -0.3125 9.875 -3 12 C-3.99 12 -4.98 12 -6 12 C-6 11.01 -6 10.02 -6 9 C-4.68 9 -3.36 9 -2 9 C-2 8.34 -2 7.68 -2 7 C-1.34 7 -0.68 7 0 7 C0 4.69 0 2.38 0 0 Z " fill="#EDAA81" transform="translate(129,88)"/>
<path d="M0 0 C0 0.99 0 1.98 0 3 C-4.62 3 -9.24 3 -14 3 C-14.33 2.34 -14.66 1.68 -15 1 C-13.06263299 0.83179449 -11.12510094 0.66548905 -9.1875 0.5 C-7.56908203 0.36078125 -7.56908203 0.36078125 -5.91796875 0.21875 C-3 0 -3 0 0 0 Z " fill="#E79360" transform="translate(118,92)"/>
<path d="M0 0 C5.75 0.875 5.75 0.875 8 2 C8 2.66 8 3.32 8 4 C6.68 4 5.36 4 4 4 C3.67 4.99 3.34 5.98 3 7 C0 3.375 0 3.375 0 0 Z " fill="#EEB491" transform="translate(94,89)"/>
<path d="M0 0 C0.66 1.32 1.32 2.64 2 4 C0.02 6.97 -1.96 9.94 -4 13 C-5 9 -5 9 -4.00390625 6.640625 C-3.52824219 5.85171875 -3.05257813 5.0628125 -2.5625 4.25 C-2.08941406 3.45078125 -1.61632812 2.6515625 -1.12890625 1.828125 C-0.75636719 1.22484375 -0.38382812 0.6215625 0 0 Z " fill="#5B7E9A" transform="translate(335,82)"/>
<path d="M0 0 C0.99 0 1.98 0 3 0 C3 3.3 3 6.6 3 10 C2.01 10 1.02 10 0 10 C0 6.7 0 3.4 0 0 Z " fill="#587895" transform="translate(91,72)"/>
<path d="M0 0 C0 0.66 0 1.32 0 2 C2.64 2 5.28 2 8 2 C8 2.33 8 2.66 8 3 C1.565 3.495 1.565 3.495 -5 4 C-5 3.01 -5 2.02 -5 1 C-2 0 -2 0 0 0 Z " fill="#EDB48C" transform="translate(109,87)"/>
<path d="M0 0 C0.66 0.33 1.32 0.66 2 1 C2 1.66 2 2.32 2 3 C2.66 3 3.32 3 4 3 C4 4.98 4 6.96 4 9 C3.34 8.34 2.68 7.68 2 7 C-0.57061311 6.35232207 -0.57061311 6.35232207 -3 6 C-2.67 5.34 -2.34 4.68 -2 4 C-1.67 4 -1.34 4 -1 4 C-0.67 2.68 -0.34 1.36 0 0 Z " fill="#0DA15D" transform="translate(132,66)"/>
<path d="M0 0 C0.33 0 0.66 0 1 0 C1.185625 1.7015625 1.185625 1.7015625 1.375 3.4375 C1.684375 5.2009375 1.684375 5.2009375 2 7 C2.66 7.33 3.32 7.66 4 8 C3.67 9.98 3.34 11.96 3 14 C1.68 13.67 0.36 13.34 -1 13 C-0.34 12.67 0.32 12.34 1 12 C0.67 11.01 0.34 10.02 0 9 C-0.06740865 7.43881572 -0.08514456 5.8749748 -0.0625 4.3125 C-0.05347656 3.50425781 -0.04445313 2.69601563 -0.03515625 1.86328125 C-0.02355469 1.24839844 -0.01195313 0.63351563 0 0 Z " fill="#29577F" transform="translate(97,73)"/>
<path d="M0 0 C2.61724095 2.36797991 4.32861729 4.89600354 6 8 C6 8.66 6 9.32 6 10 C4.125 9.8125 4.125 9.8125 2 9 C0.21715186 5.70173093 0 3.8225249 0 0 Z " fill="#66839F" transform="translate(310,68)"/>
<path d="M0 0 C0.66 0.33 1.32 0.66 2 1 C1.67 2.32 1.34 3.64 1 5 C-0.98 5.33 -2.96 5.66 -5 6 C-5.66 5.01 -6.32 4.02 -7 3 C-4.69 3 -2.38 3 0 3 C0 2.01 0 1.02 0 0 Z " fill="#22578C" transform="translate(160,95)"/>
<path d="M0 0 C2.97 0 5.94 0 9 0 C9 0.99 9 1.98 9 3 C6.03 2.67 3.06 2.34 0 2 C0 1.34 0 0.68 0 0 Z " fill="#22588B" transform="translate(200,98)"/>
<path d="M0 0 C-1.28965176 1.37562854 -2.62689293 2.70766393 -4 4 C-4.66 4 -5.32 4 -6 4 C-5.67 4.99 -5.34 5.98 -5 7 C-5.99 7.495 -5.99 7.495 -7 8 C-7 5.69 -7 3.38 -7 1 C-4.53721199 -0.231394 -2.7204945 -0.07159196 0 0 Z " fill="#63849F" transform="translate(210,84)"/>
<path d="M0 0 C1.32 0 2.64 0 4 0 C4.33 2.97 4.66 5.94 5 9 C4.67 9 4.34 9 4 9 C4 7.35 4 5.7 4 4 C2.35 4 0.7 4 -1 4 C-0.67 2.68 -0.34 1.36 0 0 Z " fill="#6686A5" transform="translate(210,67)"/>
<path d="M0 0 C2.0625 0.4375 2.0625 0.4375 4 1 C4 2.65 4 4.3 4 6 C2.68 5.67 1.36 5.34 0 5 C-0.5625 3.0625 -0.5625 3.0625 -1 1 C-0.67 0.67 -0.34 0.34 0 0 Z " fill="#21A66A" transform="translate(126,59)"/>
<path d="M0 0 C2.9375 0.75 2.9375 0.75 4.9375 2.75 C0.68688644 4.16687119 -1.78101625 2.94320039 -6.0625 1.75 C-3.0625 -0.25 -3.0625 -0.25 0 0 Z " fill="#4E7192" transform="translate(201.0625,57.25)"/>
<path d="M0 0 C4.95 1.98 4.95 1.98 10 4 C10 4.33 10 4.66 10 5 C2.57142857 5.28571429 2.57142857 5.28571429 -1 3 C-0.67 2.01 -0.34 1.02 0 0 Z " fill="#5D7D9B" transform="translate(237,87)"/>
<path d="M0 0 C0.66 0 1.32 0 2 0 C0.73882275 3.88862987 -0.45264167 5.89375599 -4 8 C-4.66 8 -5.32 8 -6 8 C-6 7.34 -6 6.68 -6 6 C-5.34 6 -4.68 6 -4 6 C-4 5.01 -4 4.02 -4 3 C-2.68 3 -1.36 3 0 3 C0 2.01 0 1.02 0 0 Z " fill="#6485A4" transform="translate(106,79)"/>
<path d="M0 0 C0.33 0 0.66 0 1 0 C0.6875 3.375 0.6875 3.375 0 7 C-0.99 7.66 -1.98 8.32 -3 9 C-3 4.73012377 -2.36301527 3.40274199 0 0 Z " fill="#5C7E9D" transform="translate(331,66)"/>
<path d="M0 0 C-1 2 -1 2 -2.84765625 2.6328125 C-3.57855469 2.79523437 -4.30945313 2.95765625 -5.0625 3.125 C-6.16271484 3.37636719 -6.16271484 3.37636719 -7.28515625 3.6328125 C-7.85105469 3.75398438 -8.41695312 3.87515625 -9 4 C-9.33 3.01 -9.66 2.02 -10 1 C-6.78548731 -0.60725635 -3.56387464 -0.05748185 0 0 Z " fill="#517595" transform="translate(243,57)"/>
<path d="M0 0 C3.3 0 6.6 0 10 0 C9.67 0.66 9.34 1.32 9 2 C8.34 2 7.68 2 7 2 C6.67 2.99 6.34 3.98 6 5 C5.7525 4.360625 5.505 3.72125 5.25 3.0625 C4.03378366 0.50980961 4.03378366 0.50980961 0 0 Z " fill="#6D89A3" transform="translate(106,56)"/>
<path d="M0 0 C0.33 0 0.66 0 1 0 C1 2.97 1 5.94 1 9 C0.01 9.33 -0.98 9.66 -2 10 C-1.34 6.7 -0.68 3.4 0 0 Z " fill="#5F7F9C" transform="translate(281,89)"/>
<path d="M0 0 C5.75 -0.125 5.75 -0.125 8 1 C8 1.99 8 2.98 8 4 C6.68 4 5.36 4 4 4 C3.67 3.34 3.34 2.68 3 2 C2.01 1.34 1.02 0.68 0 0 Z " fill="#E89358" transform="translate(121,86)"/>
<path d="M0 0 C2.475 0.495 2.475 0.495 5 1 C3.25 5.875 3.25 5.875 1 7 C0.67 4.69 0.34 2.38 0 0 Z " fill="#6FC19E" transform="translate(131,85)"/>
<path d="M0 0 C0.33 0 0.66 0 1 0 C1.25 5.625 1.25 5.625 -1 9 C-1.66 9 -2.32 9 -3 9 C-2.01 6.03 -1.02 3.06 0 0 Z " fill="#597998" transform="translate(291,58)"/>
<path d="M0 0 C0 0.33 0 0.66 0 1 C-1.65 1 -3.3 1 -5 1 C-5 1.66 -5 2.32 -5 3 C-6.32 2.67 -7.64 2.34 -9 2 C-9 1.34 -9 0.68 -9 0 C-5.93109813 -1.53445094 -3.29905734 -0.54984289 0 0 Z " fill="#78C09B" transform="translate(125,57)"/>
<path d="M0 0 C0.66 0 1.32 0 2 0 C1.67 1.65 1.34 3.3 1 5 C-0.65 5 -2.3 5 -4 5 C-2.71937515 3.2925002 -1.38232443 1.62626404 0 0 Z " fill="#587898" transform="translate(100,59)"/>
<path d="M0 0 C0.99 0.33 1.98 0.66 3 1 C4.1875 3.5625 4.1875 3.5625 5 6 C3.02 5.34 1.04 4.68 -1 4 C-0.67 2.68 -0.34 1.36 0 0 Z " fill="#61849F" transform="translate(302,57)"/>
<path d="M0 0 C0.94875 0.04125 1.8975 0.0825 2.875 0.125 C2.545 1.445 2.215 2.765 1.875 4.125 C-0.435 3.465 -2.745 2.805 -5.125 2.125 C-3.125 0.125 -3.125 0.125 0 0 Z " fill="#436989" transform="translate(107.125,56.875)"/>
<path d="M0 0 C3 1 3 1 4.6875 4.0625 C5.120625 5.031875 5.55375 6.00125 6 7 C5.01 7 4.02 7 3 7 C0 2.77777778 0 2.77777778 0 0 Z " fill="#708BA5" transform="translate(307,89)"/>
<path d="M0 0 C0.66 0.33 1.32 0.66 2 1 C1.25 3.4375 1.25 3.4375 0 6 C-2.125 6.8125 -2.125 6.8125 -4 7 C-2.92598892 4.08482708 -2.22189824 2.22189824 0 0 Z " fill="#748FA8" transform="translate(226,62)"/>
</svg>
